<mxfile host="Electron" modified="2024-09-19T07:04:45.884Z" agent="Mozilla/5.0 (Windows NT 10.0; Win64; x64) AppleWebKit/537.36 (KHTML, like Gecko) draw.io/21.7.5 Chrome/114.0.5735.289 Electron/25.8.1 Safari/537.36" etag="fms6_ZwHtQs7bd4uu8YG" version="21.7.5" type="device">
  <diagram name="PÃ¡gina-1" id="S3CMYdW8B_unhrhxHO6j">
    <mxGraphModel dx="1292" dy="965" grid="1" gridSize="10" guides="1" tooltips="1" connect="1" arrows="1" fold="1" page="1" pageScale="1" pageWidth="827" pageHeight="1169" math="0" shadow="0">
      <root>
        <mxCell id="0" />
        <mxCell id="1" parent="0" />
        <mxCell id="WUPHw0hetlkZ_YdYONDl-1" value="&#xa;Ejercicio 32. Realiza un programa que calcule la media de tres notas.&#xa;&#xa;" style="text;html=1;strokeColor=none;fillColor=none;align=center;verticalAlign=middle;whiteSpace=wrap;rounded=0;" vertex="1" parent="1">
          <mxGeometry x="290" y="30" width="260" height="30" as="geometry" />
        </mxCell>
        <mxCell id="WUPHw0hetlkZ_YdYONDl-9" style="edgeStyle=orthogonalEdgeStyle;rounded=0;orthogonalLoop=1;jettySize=auto;html=1;entryX=0.5;entryY=0;entryDx=0;entryDy=0;" edge="1" parent="1" source="WUPHw0hetlkZ_YdYONDl-2" target="WUPHw0hetlkZ_YdYONDl-3">
          <mxGeometry relative="1" as="geometry" />
        </mxCell>
        <mxCell id="WUPHw0hetlkZ_YdYONDl-2" value="Inicio Act32T2" style="rounded=1;whiteSpace=wrap;html=1;" vertex="1" parent="1">
          <mxGeometry x="360" y="80" width="120" height="60" as="geometry" />
        </mxCell>
        <mxCell id="WUPHw0hetlkZ_YdYONDl-10" style="edgeStyle=orthogonalEdgeStyle;rounded=0;orthogonalLoop=1;jettySize=auto;html=1;entryX=0.5;entryY=0;entryDx=0;entryDy=0;" edge="1" parent="1" source="WUPHw0hetlkZ_YdYONDl-3" target="WUPHw0hetlkZ_YdYONDl-4">
          <mxGeometry relative="1" as="geometry" />
        </mxCell>
        <mxCell id="WUPHw0hetlkZ_YdYONDl-3" value="Leer nota1" style="shape=parallelogram;perimeter=parallelogramPerimeter;whiteSpace=wrap;html=1;fixedSize=1;" vertex="1" parent="1">
          <mxGeometry x="360" y="170" width="120" height="60" as="geometry" />
        </mxCell>
        <mxCell id="WUPHw0hetlkZ_YdYONDl-11" style="edgeStyle=orthogonalEdgeStyle;rounded=0;orthogonalLoop=1;jettySize=auto;html=1;entryX=0.5;entryY=0;entryDx=0;entryDy=0;" edge="1" parent="1" source="WUPHw0hetlkZ_YdYONDl-4" target="WUPHw0hetlkZ_YdYONDl-5">
          <mxGeometry relative="1" as="geometry" />
        </mxCell>
        <mxCell id="WUPHw0hetlkZ_YdYONDl-4" value="Leer nota2" style="shape=parallelogram;perimeter=parallelogramPerimeter;whiteSpace=wrap;html=1;fixedSize=1;" vertex="1" parent="1">
          <mxGeometry x="360" y="250" width="120" height="60" as="geometry" />
        </mxCell>
        <mxCell id="WUPHw0hetlkZ_YdYONDl-14" style="edgeStyle=orthogonalEdgeStyle;rounded=0;orthogonalLoop=1;jettySize=auto;html=1;entryX=0.5;entryY=0;entryDx=0;entryDy=0;" edge="1" parent="1" source="WUPHw0hetlkZ_YdYONDl-5" target="WUPHw0hetlkZ_YdYONDl-6">
          <mxGeometry relative="1" as="geometry" />
        </mxCell>
        <mxCell id="WUPHw0hetlkZ_YdYONDl-5" value="Leer nota3" style="shape=parallelogram;perimeter=parallelogramPerimeter;whiteSpace=wrap;html=1;fixedSize=1;" vertex="1" parent="1">
          <mxGeometry x="360" y="330" width="120" height="60" as="geometry" />
        </mxCell>
        <mxCell id="WUPHw0hetlkZ_YdYONDl-15" style="edgeStyle=orthogonalEdgeStyle;rounded=0;orthogonalLoop=1;jettySize=auto;html=1;entryX=0.5;entryY=0;entryDx=0;entryDy=0;" edge="1" parent="1" source="WUPHw0hetlkZ_YdYONDl-6" target="WUPHw0hetlkZ_YdYONDl-7">
          <mxGeometry relative="1" as="geometry" />
        </mxCell>
        <mxCell id="WUPHw0hetlkZ_YdYONDl-6" value="media = (nota1 + nota2 + nota3+)/3" style="rounded=0;whiteSpace=wrap;html=1;" vertex="1" parent="1">
          <mxGeometry x="360" y="420" width="120" height="60" as="geometry" />
        </mxCell>
        <mxCell id="WUPHw0hetlkZ_YdYONDl-17" style="edgeStyle=orthogonalEdgeStyle;rounded=0;orthogonalLoop=1;jettySize=auto;html=1;entryX=0.5;entryY=0;entryDx=0;entryDy=0;" edge="1" parent="1" source="WUPHw0hetlkZ_YdYONDl-7" target="WUPHw0hetlkZ_YdYONDl-8">
          <mxGeometry relative="1" as="geometry" />
        </mxCell>
        <mxCell id="WUPHw0hetlkZ_YdYONDl-7" value="Escribir media" style="shape=parallelogram;perimeter=parallelogramPerimeter;whiteSpace=wrap;html=1;fixedSize=1;" vertex="1" parent="1">
          <mxGeometry x="360" y="510" width="120" height="60" as="geometry" />
        </mxCell>
        <mxCell id="WUPHw0hetlkZ_YdYONDl-8" value="Fin Act32T2" style="rounded=1;whiteSpace=wrap;html=1;" vertex="1" parent="1">
          <mxGeometry x="360" y="600" width="120" height="60" as="geometry" />
        </mxCell>
      </root>
    </mxGraphModel>
  </diagram>
</mxfile>
